<svg width="24" height="24" viewBox="0 0 24 24" fill="none" xmlns="http://www.w3.org/2000/svg">
<path d="M12 21C9.48333 21 7.35417 20.1292 5.6125 18.3875C3.87083 16.6458 3 14.5167 3 12C3 9.7 3.75 7.70417 5.25 6.0125C6.75 4.32083 8.66667 3.33333 11 3.05C11.2167 3.01667 11.4083 3.04583 11.575 3.1375C11.7417 3.22917 11.875 3.35 11.975 3.5C12.075 3.65 12.1292 3.825 12.1375 4.025C12.1458 4.225 12.0833 4.41667 11.95 4.6C11.6667 5.03333 11.4542 5.49167 11.3125 5.975C11.1708 6.45833 11.1 6.96667 11.1 7.5C11.1 9 11.625 10.275 12.675 11.325C13.725 12.375 15 12.9 16.5 12.9C17.0167 12.9 17.5292 12.825 18.0375 12.675C18.5458 12.525 19 12.3167 19.4 12.05C19.5833 11.9333 19.7708 11.8792 19.9625 11.8875C20.1542 11.8958 20.325 11.9417 20.475 12.025C20.6417 12.1083 20.7708 12.2333 20.8625 12.4C20.9542 12.5667 20.9833 12.7667 20.95 13C20.7167 15.3 19.7375 17.2083 18.0125 18.725C16.2875 20.2417 14.2833 21 12 21ZM12 19C13.4667 19 14.7833 18.5958 15.95 17.7875C17.1167 16.9792 17.9667 15.925 18.5 14.625C18.1667 14.7083 17.8333 14.775 17.5 14.825C17.1667 14.875 16.8333 14.9 16.5 14.9C14.45 14.9 12.7042 14.1792 11.2625 12.7375C9.82083 11.2958 9.1 9.55 9.1 7.5C9.1 7.16667 9.125 6.83333 9.175 6.5C9.225 6.16667 9.29167 5.83333 9.375 5.5C8.075 6.03333 7.02083 6.88333 6.2125 8.05C5.40417 9.21667 5 10.5333 5 12C5 13.9333 5.68333 15.5833 7.05 16.95C8.41667 18.3167 10.0667 19 12 19Z" fill="black"/>
</svg>
